<?xml version="1.0" encoding="UTF-8"?><svg id="Layer_2" xmlns="http://www.w3.org/2000/svg" viewBox="0 0 476 402"><defs><style>.cls-1{fill:#0965da;}.cls-1,.cls-2,.cls-3{stroke-width:0px;}.cls-2{fill:#fff;}.cls-3{fill:#49c160;}</style></defs><g id="Layer_1-2"><path class="cls-2" d="M476,21.54v66.46H0V21.54C0,9.64,9.69,0,21.63,0,21.64,0,21.64,0,21.64,0h432.72c11.95,0,21.64,9.64,21.64,21.53h0Z"/><path class="cls-2" d="M0,89v291.39c0,11.93,9.69,21.61,21.64,21.61h432.72c11.95,0,21.64-9.67,21.64-21.61V89H0Z"/><path class="cls-1" d="M159.56,27.19c12.35-3.84,23.63,6.01,22.34,18.04-.84,7.82-7.15,14.14-14.96,15.01-10.26,1.13-18.94-6.87-18.94-16.89h0c0-7.31,4.59-13.99,11.56-16.16Z"/><path class="cls-1" d="M99.56,27.19c12.35-3.84,23.63,6.01,22.34,18.04-.84,7.82-7.15,14.14-14.96,15.01-10.26,1.13-18.94-6.87-18.94-16.89h0c0-7.31,4.59-13.99,11.56-16.16Z"/><path class="cls-1" d="M38.57,27.19c12.35-3.83,23.62,6.01,22.33,18.05-.84,7.82-7.15,14.14-14.96,15.01-10.26,1.13-18.94-6.87-18.94-16.89h0c0-7.31,4.59-13.99,11.57-16.16Z"/><path class="cls-1" d="M119.26,217h-57.51c-4.83,0-8.74-3.91-8.74-8.74v-57.52c0-4.83,3.92-8.74,8.74-8.74h28.48c3.07,0,5.81,2.2,6.18,5.25.44,3.65-2.39,6.75-5.95,6.75h-25.45v51h51v-15.93c0-3.07,2.2-5.81,5.25-6.18,3.65-.44,6.75,2.39,6.75,5.95v19.41c0,4.83-3.92,8.74-8.74,8.74h0Z"/><path class="cls-3" d="M96.3,187c-2.2,0-4.34-.77-6.04-2.17l-11.04-8.93c-2.58-2.08-2.97-5.86-.89-8.44,2.08-2.58,5.86-2.97,8.44-.89h0l9.18,7.43,28.62-34.39c2.12-2.55,5.9-2.89,8.45-.77s2.89,5.9.77,8.45l-30.58,36.75-.24.23c-1.79,1.74-4.18,2.72-6.68,2.73h0Z"/><path class="cls-1" d="M423.93,158h-233.9c-3.07,0-5.81-2.2-6.18-5.25-.44-3.65,2.39-6.75,5.95-6.75h233.9c3.07,0,5.81,2.2,6.18,5.25.44,3.65-2.39,6.75-5.95,6.75Z"/><path class="cls-1" d="M423.93,208h-233.9c-3.07,0-5.81-2.2-6.18-5.25-.44-3.65,2.39-6.75,5.95-6.75h233.9c3.07,0,5.81,2.2,6.18,5.25.44,3.65-2.39,6.75-5.95,6.75Z"/><path class="cls-1" d="M119.26,344h-57.51c-4.83,0-8.74-3.91-8.74-8.74v-57.52c0-4.83,3.92-8.74,8.74-8.74h28.48c3.07,0,5.81,2.2,6.18,5.25.44,3.65-2.39,6.75-5.95,6.75h-25.45v51h51v-15.93c0-3.07,2.2-5.81,5.25-6.18,3.65-.44,6.75,2.39,6.75,5.95v19.41c0,4.83-3.92,8.74-8.74,8.74Z"/><path class="cls-3" d="M96.3,314.17c-2.2,0-4.34-.77-6.04-2.17l-11.04-8.93c-2.58-2.08-2.97-5.86-.89-8.44,2.08-2.58,5.86-2.97,8.44-.89h0l9.18,7.43,28.62-34.39c2.12-2.55,5.9-2.89,8.45-.77,2.55,2.12,2.89,5.9.77,8.45l-30.58,36.75-.24.23c-1.79,1.74-4.18,2.72-6.68,2.73h0Z"/><path class="cls-1" d="M423.93,286h-48.52c-3.07,0-5.81-2.2-6.18-5.25-.44-3.65,2.39-6.75,5.95-6.75h48.52c3.07,0,5.81,2.2,6.18,5.25.44,3.65-2.39,6.75-5.95,6.75h0Z"/><path class="cls-1" d="M265.84,286h-75.81c-3.07,0-5.81-2.2-6.18-5.25-.44-3.65,2.39-6.75,5.95-6.75h75.81c3.07,0,5.81,2.2,6.18,5.25.44,3.65-2.39,6.75-5.95,6.75Z"/><path class="cls-1" d="M210.29,335h-20.27c-3.07,0-5.81-2.2-6.18-5.25-.44-3.65,2.39-6.75,5.95-6.75h20.27c3.07,0,5.81,2.2,6.18,5.25.44,3.65-2.39,6.75-5.95,6.75Z"/><path class="cls-1" d="M449.76,48h-194.71c-3.07,0-5.81-2.2-6.18-5.25-.44-3.65,2.39-6.75,5.95-6.75h194.71c3.07,0,5.81,2.2,6.18,5.25.44,3.65-2.39,6.75-5.95,6.75h0Z"/><path class="cls-1" d="M433.11,94H47.34c-6.08,0-11.52-2.2-12.25-5.25-.88-3.65,4.74-6.75,11.8-6.75h385.77c6.08,0,11.52,2.2,12.25,5.25.88,3.65-4.74,6.75-11.8,6.75h0Z"/></g></svg>