<?xml version="1.0" encoding="UTF-8"?><svg id="Layer_2" xmlns="http://www.w3.org/2000/svg" viewBox="0 0 485.9 486.28"><defs><style>.cls-1{stroke-width:0px;}.cls-1,.cls-2{fill:#000;}.cls-2{stroke:#000;stroke-miterlimit:10;stroke-width:15px;}</style></defs><g id="Layer_1-2"><path class="cls-2" d="M242.13,436.6c-51.52-.17-99.94-20.52-136.35-57.3-36.45-36.81-56.33-85.53-55.99-137.16.34-51.46,20.59-99.79,57.02-136.07,36.43-36.29,84.78-56.28,136.13-56.28.44,0,.87,0,1.31,0,51.52.17,99.94,20.52,136.35,57.3,36.45,36.81,56.33,85.53,55.99,137.16-.34,51.42-20.64,99.75-57.15,136.07-36.48,36.29-84.78,56.28-136,56.28-.43,0-.87,0-1.3,0ZM243.25,58.49c-101.33,0-184.38,82.51-185.13,183.93-.38,101.73,82.13,185.1,183.93,185.86h.72c101.33,0,184.38-82.5,185.13-183.93.38-101.73-82.13-185.1-183.93-185.86h-.72Z"/><path class="cls-2" d="M241.76,478.78c-127.67-.7-231.36-103.38-234.09-230.2h5.76c1.28,58.88,24.74,114.14,66.46,156.24,43.22,43.62,100.82,67.84,162.17,68.21.46,0,.93,0,1.39,0,125.83,0,228.82-102.59,229.57-228.68.74-124.45-98.38-226.68-222.24-230.83v-5.76c29.46.96,58.02,7.3,84.98,18.88,27.97,12.01,53.05,29.13,74.57,50.87,21.51,21.74,38.36,47.01,50.07,75.09,12.13,29.08,18.18,59.92,18.01,91.68-.17,31.65-6.53,62.36-18.88,91.26-11.94,27.93-28.95,53.01-50.56,74.55-44.45,44.3-103.36,68.7-165.88,68.7-.44,0-.87,0-1.31,0Z"/><path class="cls-2" d="M25.74,151.94C50.4,93.76,97.43,47.83,156.16,24.55l2.06,5.49c-57.07,22.74-102.82,67.47-126.91,124.1l-5.57-2.21Z"/><path class="cls-1" d="M130.23,291.98c-2.2,0-4.4-1.47-5.5-3.67-6.6-15.4-9.9-31.91-9.9-49.14,0-3.3,2.57-5.87,5.87-5.87s5.87,2.57,5.87,5.87c0,15.4,2.93,30.44,9.17,44.74,1.47,2.93,0,6.6-3.3,7.7-.73.37-1.47.37-2.2.37Z"/><path class="cls-1" d="M348.81,306.28c-.73,0-1.83-.37-2.57-.73-2.93-1.47-4.4-5.13-2.93-8.07,5.13-11,8.43-22.37,9.9-34.47.37-3.3,3.3-5.5,6.6-5.13,3.3.37,5.5,3.3,5.13,6.6-1.83,13.2-5.5,26.04-11,37.77-.73,2.57-2.93,4.03-5.13,4.03Z"/><path class="cls-1" d="M362.01,245.03c-3.3,0-5.87-2.57-5.87-5.87,0-46.21-27.51-87.65-70.05-105.62-2.93-1.47-4.4-4.77-3.3-7.7,1.47-2.93,4.77-4.4,7.7-3.3,46.94,19.8,77.38,65.65,77.38,116.62,0,3.3-2.57,5.87-5.87,5.87Z"/><path class="cls-1" d="M127.3,205.43c-.73,0-1.47,0-1.83-.37-2.93-1.1-4.77-4.4-3.67-7.7,17.6-50.98,65.65-85.08,119.56-85.08,3.3,0,5.87,2.57,5.87,5.87s-2.57,5.87-5.87,5.87c-48.78,0-92.42,30.81-108.19,77.02-1.1,2.93-3.3,4.4-5.87,4.4Z"/><path class="cls-1" d="M145.64,256.77c-2.93,0-5.5-2.2-5.87-5.13-.37-4.03-.73-8.44-.73-12.47,0-36.31,19.44-70.41,50.98-88.75,2.93-1.83,6.6-.73,8.07,2.2,1.83,2.93.73,6.6-2.2,8.07-27.87,16.14-45.11,46.21-45.11,78.12,0,3.67.37,7.33.73,11,.37,3.3-1.83,6.23-5.13,6.6q-.37.37-.73.37Z"/><path class="cls-1" d="M300.77,169.12c-1.47,0-2.57-.37-3.67-1.1-16.14-12.47-35.21-19.07-55.74-19.07-4.4,0-8.8.37-13.2,1.1-3.3.37-6.23-1.83-6.6-5.13-.37-3.3,1.83-6.23,5.13-6.6,4.77-.73,9.9-1.1,14.67-1.1,23.1,0,44.74,7.33,63.08,21.64,2.57,2.2,2.93,5.87,1.1,8.43-1.47,1.1-3.3,1.83-4.77,1.83Z"/><path class="cls-1" d="M304.8,347.72c-1.47,0-2.57-.37-3.67-1.47-2.57-2.2-2.93-5.87-.73-8.44,31.17-37.77,45.84-103.42,17.24-147.8-1.83-2.93-1.1-6.6,1.83-8.44,2.93-1.83,6.6-1.1,8.44,1.83,14.67,22.74,20.17,52.44,15.77,83.62-4.03,28.61-16.5,57.21-33.74,78.48-1.83,1.47-3.3,2.2-5.13,2.2Z"/><path class="cls-1" d="M247.59,281.34c-3.3,0-5.87-2.57-5.87-5.87-.37-11.37-2.2-22.74-4.77-33.01-.73-3.3,1.1-6.6,4.4-7.33,3.3-.73,6.6,1.1,7.33,4.4,2.93,11.37,4.77,23.47,5.13,35.94-.37,2.93-2.93,5.87-6.23,5.87Z"/><path class="cls-1" d="M233.65,365.69c-.73,0-1.47,0-2.2-.37-2.93-1.1-4.4-4.77-3.3-7.7,8.07-19.8,12.84-41.08,14.3-61.61.37-3.3,2.93-5.87,6.23-5.5,3.3.37,5.87,2.93,5.5,6.23-1.47,21.64-6.6,44.01-15.04,64.91-.73,2.57-3.3,4.03-5.5,4.03Z"/><path class="cls-1" d="M147.1,320.22c-.37,0-1.1,0-1.47-.37-3.3-.73-5.13-4.4-4.03-7.33,3.3-11.37,4.03-24.2,2.57-36.67-.37-3.3,1.83-6.23,5.13-6.6,3.3-.37,6.23,1.83,6.6,5.13,1.83,13.94.73,28.24-2.93,41.08-1.1,2.93-3.3,4.77-5.87,4.77Z"/><path class="cls-1" d="M314.34,245.03c-3.3,0-5.87-2.57-5.87-5.87,0-22-11-42.91-29.34-55.38-2.57-1.83-3.3-5.5-1.47-8.44,1.83-2.57,5.5-3.3,8.44-1.47,21.64,14.67,34.47,39.24,34.47,65.28,0,3.3-2.93,5.87-6.23,5.87Z"/><path class="cls-1" d="M168.37,245.03c-3.3,0-5.87-2.57-5.87-5.87,0-43.64,35.57-79.22,79.22-79.22,2.57,0,5.5,0,8.07.37,3.3.37,5.5,3.3,5.5,6.6-.37,3.3-3.3,5.5-6.6,5.5-2.2-.37-4.77-.37-6.97-.37-37.04,0-67.11,30.07-67.11,67.11-.37,3.3-2.93,5.87-6.23,5.87Z"/><path class="cls-1" d="M166.54,339.65c-.73,0-1.47,0-2.2-.37-2.93-1.1-4.77-4.77-3.67-7.7,4.77-12.84,7.33-26.41,7.33-40.71,0-9.17-1.1-18.34-3.3-27.14-.73-3.3,1.1-6.6,4.4-7.33,3.3-.73,6.6,1.1,7.33,4.4,2.2,9.54,3.67,19.8,3.67,29.71,0,15.4-2.57,30.44-8.07,44.74-1.1,2.93-3.3,4.4-5.5,4.4Z"/><path class="cls-1" d="M257.12,366.06c-1.83,0-3.67-.73-4.77-2.57-1.83-2.57-1.1-6.23,1.47-8.07,30.07-20.9,49.51-52.44,54.28-89.49.37-3.3,3.3-5.5,6.6-5.13,3.3.37,5.5,3.3,5.13,6.6-5.5,40.34-26.41,74.81-59.41,97.55-.73.73-2.2,1.1-3.3,1.1Z"/><path class="cls-1" d="M198.45,222.66c-1.1,0-1.83-.37-2.93-.73-2.93-1.47-4.03-5.13-2.57-8.07,9.54-17.97,27.87-29.34,48.41-29.34,13.57,0,26.77,5.13,36.67,14.3,2.57,2.2,2.57,5.87.37,8.44-2.2,2.57-5.87,2.57-8.44.37-7.7-6.97-17.97-11-28.61-11-15.77,0-30.44,8.8-37.77,22.74-1.1,2.2-2.93,3.3-5.13,3.3Z"/><path class="cls-1" d="M200.65,302.98c-3.3,0-5.87-2.57-5.87-5.87,0-17.24-2.2-34.11-6.97-50.61-.73-3.3,1.1-6.6,4.03-7.33,3.3-.73,6.6,1.1,7.33,4.03,4.77,17.6,7.33,35.57,7.33,53.54,0,3.3-2.57,6.23-5.87,6.23Z"/><path class="cls-1" d="M189.28,353.59c-.73,0-1.83,0-2.57-.37-2.93-1.47-4.4-4.77-2.93-8.07,4.03-8.8,6.6-17.6,8.07-27.14.37-3.3,3.67-5.5,6.97-4.77,3.3.37,5.5,3.67,4.77,6.97-1.83,10.27-4.77,20.54-9.17,30.07-.73,2.2-2.93,3.3-5.13,3.3Z"/><path class="cls-1" d="M294.9,276.21h-.37c-3.3-.37-5.87-2.93-5.5-6.23.73-13.94-1.1-27.87-5.5-41.08-1.1-2.93.37-6.6,3.67-7.7,2.93-1.1,6.6.37,7.7,3.67,5.13,14.67,7.33,30.07,6.23,45.84-.37,2.93-2.93,5.5-6.23,5.5Z"/><path class="cls-1" d="M210.18,361.66c-.73,0-1.47,0-2.57-.37-2.93-1.47-4.4-4.77-2.93-8.07,2.93-6.23,5.13-12.84,6.97-19.44,1.1-3.3,4.4-5.13,7.33-4.03,3.3,1.1,5.13,4.4,4.03,7.33-2.2,6.97-4.77,14.3-7.7,20.9-.73,2.57-2.93,3.67-5.13,3.67Z"/><path class="cls-1" d="M221.55,322.78h-.73c-3.3-.37-5.5-3.67-5.13-6.97,1.47-9.54,1.83-19.07,1.1-28.61-.37-4.4-.73-9.17-1.47-13.57-.37-3.3,1.83-6.23,4.77-6.97,3.3-.37,6.23,1.83,6.97,4.77.73,4.77,1.47,9.9,1.83,14.67.73,10.27.37,20.9-1.47,31.17-.37,3.3-2.93,5.5-5.87,5.5Z"/><path class="cls-1" d="M273.99,283.91c-3.3,0-5.87-2.57-5.87-5.87,0-20.17-5.5-57.94-26.77-57.94-10.64,0-19.44,8.8-19.44,19.44v1.1c.37,3.3-2.2,6.23-5.5,6.23s-6.23-2.2-6.23-5.5v-1.83c0-17.24,13.94-31.17,31.17-31.17,28.61,0,38.51,37.77,38.51,70.05,0,2.57-2.57,5.5-5.87,5.5Z"/><path class="cls-1" d="M262.63,337.45c-.73,0-1.47,0-2.57-.37-2.93-1.47-4.4-4.77-2.93-8.07,4.4-10.27,7.7-20.9,9.53-31.91.37-3.3,3.67-5.5,6.97-5.13,3.3.37,5.5,3.67,5.13,6.97-1.83,12.1-5.5,23.84-10.27,34.84-1.47,2.57-3.67,3.67-5.87,3.67Z"/></g></svg>