<?xml version="1.0" encoding="UTF-8"?><svg id="Layer_2" xmlns="http://www.w3.org/2000/svg" viewBox="0 0 448.56 445.14"><defs><style>.cls-1{fill:#fff;stroke-width:0px;}</style></defs><g id="Layer_1-2"><path class="cls-1" d="M411.8,54.58l-314.5.23-8.52-24.75c-2.3-7.37-8.18-13.05-15.56-15.03L21.83,0C-4.18.7-8.32,37.97,16.87,44.47l32.83,11.01,38.63,191.37c4.63,22.9,12.28,43.63,22.98,61.46,15.72,26.26,43.02,45.64,76.69,45.64h165.14c29.86.51,29.86-44.88,0-44.35h-164.19c-25.56-3.1-36.16-15.33-45.53-33.26h220.7c20.08,0,31.29-16.94,36.25-36.53l47.88-154.76c2.56-25.44-11.63-30.46-36.47-30.46Z"/><path class="cls-1" d="M198.53,377.64c-19.6,0-35.5,15.12-35.5,33.74s15.9,33.76,35.5,33.76,35.47-15.12,35.47-33.76-15.87-33.74-35.47-33.74Z"/><path class="cls-1" d="M339.98,377.64c-19.57,0-35.47,15.12-35.47,33.74s15.9,33.76,35.47,33.76,35.5-15.12,35.5-33.76-15.9-33.74-35.5-33.74Z"/></g></svg>