<?xml version="1.0" encoding="UTF-8"?><svg id="Layer_2" xmlns="http://www.w3.org/2000/svg" viewBox="0 0 498.8 497.43"><defs><style>.cls-1{fill:#fff;stroke-width:0px;}</style></defs><g id="Layer_1-2"><path class="cls-1" d="M99.05,259.97H0C6.31,145.99,97.38,54.61,211.22,47.81v99.1c-59.26,6.35-106.27,53.66-112.17,113.06Z"/><path class="cls-1" d="M118.12,340.41l-70.79,70.79C20.26,376.58,3.1,333.84.12,287.25h99.14c2.23,19.4,8.86,37.46,18.85,53.16Z"/><path class="cls-1" d="M211.29,398.34v99.09c-56.87-3.38-108.05-27.86-145.84-65.73l69.85-69.85c19.89,19.97,46.42,33.32,75.99,36.48Z"/><path class="cls-1" d="M308.68,367.29l60.47,78.26c-35.8,29.9-81.03,48.9-130.58,51.87v-99.1c26.76-2.88,51.01-14.11,70.11-31.03Z"/><path class="cls-1" d="M449.61,287.25c-3.5,54.51-26.38,103.75-61.84,140.88l-61.64-79.78c13.06-17.43,21.72-38.34,24.34-61.1h99.14Z"/><path class="cls-1" d="M227.46,132.21L236.69,0c141.28,8.44,254.28,121.83,262.11,263.27l-132.14,9.23c-7.32-73.71-65.65-132.41-139.2-140.29Z"/></g></svg>