<?xml version="1.0" encoding="UTF-8"?><svg id="Layer_2" xmlns="http://www.w3.org/2000/svg" viewBox="0 0 560.38 669.88"><defs><style>.cls-1,.cls-2{fill:red;stroke-width:0px;}.cls-2{fill-rule:evenodd;}</style></defs><g id="Layer_1-2"><path class="cls-1" d="M373.6,77.29h-186.79c-8.26,5.58-16.18,2.12-22.01-4.03-5.84-6.15-9.12-14.5-9.12-23.21s3.28-17.05,9.12-23.21c5.84-6.15,13.76-9.61,22.01-26.85h186.79c8.26,17.24,16.18,20.7,22.01,26.85,5.84,6.15,9.12,14.5,9.12,23.21s-3.28,17.05-9.12,23.21c-5.84,6.15-13.76,9.61-22.01,4.03Z"/><path class="cls-1" d="M529.25,231.88H31.13c-8.26-17.72-16.18-21.18-22.01-27.33-5.84-6.15-9.12-14.5-9.12-23.21s3.28-17.05,9.12-23.21c5.84-6.15,13.76-9.61,22.01-3.55h498.12c8.26-6.06,16.18-2.6,22.01,3.55,5.84,6.15,9.12,14.5,9.12,23.21s-3.28,17.05-9.12,23.21c-5.84,6.15-13.76,9.61-22.01,27.33Z"/><path class="cls-2" d="M374.47,669.88h-187.71c-33.19,0-65.02-13.57-88.49-37.73-23.47-24.16-36.65-56.92-36.65-91.09V154.59h438v386.47c0,34.17-13.19,66.93-36.65,91.09-23.47,24.16-55.3,37.73-88.49,37.73ZM217.93,542.31c-8.26,0-16.18-3.46-22.01-9.61-5.84-6.16-9.12-14.5-5.48-23.21v-196.9c-3.64-8.7-.36-17.05,5.48-23.21,5.84-6.16,13.76-9.61,22.01-9.61s16.18,3.46,22.01,9.61c5.84,6.16,9.12,14.5,2.02,23.21v196.9c7.09,8.7,3.81,17.05-2.02,23.21-5.84,6.16-13.76,9.61-22.01,9.61ZM320.43,532.69c5.84,6.16,13.76,9.61,22.01,9.61s16.18-3.46,22.02-9.61c5.84-6.16,9.12-14.5,6.33-23.21v-196.9c2.79-8.7-.49-17.05-6.33-23.21-5.84-6.16-13.76-9.61-22.02-9.61s-16.18,3.46-22.01,9.61c-5.84,6.16-9.12,14.5-1.17,23.21v196.9c-7.94,8.7-4.66,17.05,1.17,23.21Z"/></g></svg>