<?xml version="1.0" encoding="UTF-8"?><svg id="Layer_2" xmlns="http://www.w3.org/2000/svg" viewBox="0 0 269.07 259.5"><defs><style>.cls-1{fill:none;stroke:#666;stroke-linecap:round;stroke-linejoin:round;stroke-width:18px;}</style></defs><g id="Layer_1-2"><path class="cls-1" d="M182.89,138.44l-21.18,21.18M182.89,159.62l-21.18-21.18M106.9,138.44l-21.18,21.18M106.9,159.62l-21.18-21.18M155.23,201.88c-11.56-11.56-30.3-11.56-41.85,0M228.16,9H40.92c-17.63,0-31.92,14.29-31.92,31.92v52.66h251.07v-52.66c0-17.63-14.29-31.92-31.92-31.92ZM49.96,51.02h5.85M94.11,51.02h5.32M137.73,51.02h5.32M260.07,165.39v-71.81H9v125.01c0,17.63,14.29,31.92,31.92,31.92h187.24c17.59,0,31.85-14.23,31.91-31.81"/></g></svg>