<?xml version="1.0" encoding="UTF-8"?><svg id="Layer_2" xmlns="http://www.w3.org/2000/svg" xmlns:xlink="http://www.w3.org/1999/xlink" viewBox="0 0 1355.83 1431.62"><defs><style>.cls-1{fill:#caddef;}.cls-1,.cls-2,.cls-3,.cls-4,.cls-5,.cls-6,.cls-7,.cls-8,.cls-9{stroke-width:0px;}.cls-2{fill:#c1272d;}.cls-3{fill:#d3d5da;}.cls-4{fill:#121826;}.cls-5{fill:#f4f4f6;}.cls-6{fill:#0965da;}.cls-7{fill:#fff;}.cls-10{mask:url(#mask);}.cls-8{fill:#94b2d3;}.cls-9{fill:#f3f3ff;}</style><mask id="mask" x="0" y="0" width="1355.83" height="1431.62" maskUnits="userSpaceOnUse"><g id="mask0_1_9372-2"><circle class="cls-7" cx="677.92" cy="677.92" r="677.92"/></g></mask></defs><g id="Layer_1-2"><g id="mask0_1_9372"><circle class="cls-7" cx="677.92" cy="677.92" r="677.92"/></g><circle class="cls-9" cx="677.92" cy="677.92" r="677.92"/><g class="cls-10"><path class="cls-7" d="M1124.1,433.09v882.32c0,64.18-52.03,116.21-116.21,116.21H349.34c-64.18,0-116.21-52.03-116.21-116.21V424.43c0-64.18,52.03-116.21,116.21-116.21h96.85c0,128.37,104.06,232.43,232.43,232.43,94.88,0,176.48-56.85,212.6-138.34,26.76-60.38,83.77-115.1,156.22-86.08,47.11,18.87,76.67,66.12,76.67,116.86Z"/><circle class="cls-2" cx="677.92" cy="309.9" r="193.69"/><rect class="cls-1" x="368.71" y="676.23" width="619.81" height="232.43" rx="77.48" ry="77.48"/><path class="cls-6" d="M474.54,763.39h58.11c16.05,0,29.05,13.01,29.05,29.05h0c0,16.05-13.01,29.05-29.05,29.05h-58.11c-16.05,0-29.05-13.01-29.05-29.05h0c0-16.05,13.01-29.05,29.05-29.05Z"/><path class="cls-8" d="M629.49,763.39h251.8c16.05,0,29.05,13.01,29.05,29.05h0c0,16.05-13.01,29.05-29.05,29.05h-251.8c-16.05,0-29.05-13.01-29.05-29.05h0c0-16.05,13.01-29.05,29.05-29.05Z"/><rect class="cls-5" x="368.71" y="966.77" width="619.81" height="232.43" rx="77.48" ry="77.48"/><path class="cls-3" d="M474.54,1053.93h58.11c16.05,0,29.05,13.01,29.05,29.05h0c0,16.05-13.01,29.05-29.05,29.05h-58.11c-16.05,0-29.05-13.01-29.05-29.05h0c0-16.05,13.01-29.05,29.05-29.05Z"/><path class="cls-3" d="M629.49,1053.93h251.8c16.05,0,29.05,13.01,29.05,29.05h0c0,16.05-13.01,29.05-29.05,29.05h-251.8c-16.05,0-29.05-13.01-29.05-29.05h0c0-16.05,13.01-29.05,29.05-29.05Z"/></g><rect class="cls-4" x="665.57" y="196.33" width="15" height="219" rx="7.5" ry="7.5" transform="translate(413.39 -386.36) rotate(45)"/><rect class="cls-4" x="665.57" y="196.33" width="15" height="219" rx="7.5" ry="7.5" transform="translate(1365.26 46.14) rotate(135)"/></g></svg>