<?xml version="1.0" encoding="UTF-8"?><svg id="Layer_2" xmlns="http://www.w3.org/2000/svg" viewBox="0 0 459 459"><defs><style>.cls-1{fill:#fff;stroke-width:0px;}</style></defs><g id="Layer_1-2"><path class="cls-1" d="M223.77,244.81c9.72,0,17.52-7.88,17.52-17.52s-7.8-17.52-17.52-17.52-17.52,7.88-17.52,17.52,7.89,17.52,17.52,17.52Z"/><path class="cls-1" d="M381.23,203c-1.7-11.09-4.54-21.79-8.39-32-15.11-40.03-45.88-72.36-84.84-89.53-10.15-4.48-20.87-7.93-32-10.22-10.41-2.13-21.19-3.25-32.23-3.25-7.04,0-13.97.46-20.77,1.34-11.06,1.44-21.77,4.01-32,7.6-44.36,15.56-79.73,50.18-96.3,94.06-3.85,10.21-6.69,20.91-8.39,32-1.2,7.92-1.83,16.03-1.83,24.29,0,9.8.89,19.4,2.59,28.71,2.01,11.11,5.19,21.82,9.39,32,17.22,41.75,51.69,74.59,94.54,89.63,10.23,3.59,20.94,6.17,32,7.61,6.8.88,13.73,1.34,20.77,1.34,88,0,159.29-71.36,159.29-159.29,0-8.26-.63-16.37-1.83-24.29ZM258.65,262.17l-56.02,26.06-31.63,14.71-42.81,19.92,16.22-34.86,14.89-32,27.84-59.85,1.74-3.74,4.93-2.29,62.19-28.93,32-14.89,31.34-14.58-18.27,39.28-14.59,31.35-27.83,59.82Z"/><g id="Layer_2-2"><path class="cls-1" d="M421.61,0h-128.22c-20.64.03-37.36,16.75-37.39,37.39v123.8l32-14.89V37.35c0-2.95,2.4-5.34,5.35-5.35h128.3c2.95,0,5.34,2.4,5.35,5.35v128.3c0,2.95-2.4,5.34-5.35,5.35h-120.58l-14.59,31.35c2.24.42,4.55.65,6.91.65h128.22c20.64-.03,37.36-16.75,37.39-37.39V37.39c-.03-20.64-16.75-37.36-37.39-37.39Z"/><path class="cls-1" d="M165.61,0H37.39C16.75.03.03,16.75,0,37.39v128.22c.03,20.64,16.75,37.36,37.39,37.39h128.22c8.02-.02,15.45-2.54,21.53-6.85,2.46-1.73,4.7-3.76,6.67-6.03,5.72-6.56,9.17-15.13,9.19-24.51V37.39c-.03-20.64-16.75-37.36-37.39-37.39ZM171,165.65c0,2.95-2.4,5.34-5.35,5.35H37.35c-2.95,0-5.34-2.4-5.35-5.35V37.35c0-2.95,2.4-5.34,5.35-5.35h128.3c2.95,0,5.34,2.4,5.35,5.35v128.3Z"/><path class="cls-1" d="M421.61,256h-128.22c-20.64.03-37.36,16.75-37.39,37.39v128.22c.03,20.64,16.75,37.36,37.39,37.39h128.22c8.02-.02,15.45-2.54,21.53-6.85,2.46-1.73,4.7-3.76,6.67-6.03,5.72-6.56,9.17-15.13,9.19-24.51v-128.22c-.03-20.64-16.75-37.36-37.39-37.39ZM427,421.65c0,2.95-2.4,5.34-5.35,5.35h-128.3c-2.95,0-5.34-2.4-5.35-5.35v-128.3c0-2.95,2.4-5.34,5.35-5.35h128.3c2.95,0,5.34,2.4,5.35,5.35v128.3Z"/><path class="cls-1" d="M202.63,288.23l-31.63,14.71v118.71c0,2.95-2.4,5.34-5.35,5.35H37.35c-2.95,0-5.34-2.4-5.35-5.35v-128.3c0-2.95,2.4-5.34,5.35-5.35h107.06l14.89-32H37.39c-20.64.03-37.36,16.75-37.39,37.39v128.22c.03,20.64,16.75,37.36,37.39,37.39h128.22c20.64-.03,37.36-16.75,37.39-37.39v-128.22c0-1.75-.13-3.47-.37-5.16Z"/></g></g></svg>