<?xml version="1.0" encoding="UTF-8"?><svg id="Layer_2" xmlns="http://www.w3.org/2000/svg" viewBox="0 0 471.37 427.02"><defs><style>.cls-1{fill:#333;stroke-width:0px;}</style></defs><g id="Layer_1-2"><g id="Glyph"><path class="cls-1" d="M342.5,64c0-35.35,28.65-64,64-64s64,28.65,64,64-28.65,64-64,64-64-28.65-64-64ZM21.5,86h257.72c10.25,0,19.36-7.06,21.35-17.11,2.73-13.8-7.76-25.89-21.07-25.89H21.78c-10.25,0-19.36,7.06-21.35,17.11-2.73,13.8,7.76,25.89,21.07,25.89ZM150.8,149c-27.27.08-51.54,17.29-60.63,43H22.08c-10.25,0-19.36,7.06-21.35,17.11-2.73,13.8,7.76,25.89,21.07,25.89h68.37c11.87,33.59,48.73,51.19,82.31,39.31,33.59-11.87,51.19-48.73,39.31-82.31-9.13-25.83-33.59-43.08-60.99-43ZM449.83,192h-171.72c-10.25,0-19.36,7.06-21.35,17.11-2.73,13.8,7.76,25.89,21.07,25.89h171.72c10.25,0,19.36-7.06,21.35-17.11,2.73-13.8-7.76-25.89-21.07-25.89ZM193.83,341H22.11c-10.25,0-19.36,7.06-21.35,17.11-2.73,13.8,7.76,25.89,21.07,25.89h171.72c10.25,0,19.36-7.06,21.35-17.11,2.73-13.8-7.76-25.89-21.07-25.89ZM449.58,341h-68.09c-13.11-37.08-56.68-54.68-92.67-34.63-23.58,13.14-36.42,40.02-31.82,66.62,7.03,40.6,48.09,63.42,85.18,50.31,18.37-6.49,32.82-20.94,39.31-39.31h68.37c13.31,0,23.79-12.09,21.07-25.89-1.99-10.05-11.1-17.11-21.35-17.11Z"/></g></g></svg>