<?xml version="1.0" encoding="UTF-8"?><svg id="Layer_2" xmlns="http://www.w3.org/2000/svg" viewBox="0 0 514.07 481.64"><defs><style>.cls-1{fill:#0965fa;}.cls-1,.cls-2,.cls-3{stroke-width:0px;}.cls-4{stroke:#fff;stroke-miterlimit:10;stroke-width:5px;}.cls-4,.cls-2{fill:#0965da;}.cls-3{fill:#fff;}</style></defs><g id="Layer_1-2"><rect class="cls-1" x="220.07" y="364.75" width="75" height="88"/><rect class="cls-1" x="178.07" y="321.75" width="155" height="37"/><rect class="cls-1" x="236.07" y="348.75" width="46" height="31"/><rect class="cls-1" x="12.07" y="12.75" width="495" height="326"/><path class="cls-3" d="M485.56,0H28.52C12.77.02.02,12.77,0,28.52v291.92c.02,15.74,12.77,28.5,28.52,28.52h89.64c5.25-.14,9.39-4.51,9.25-9.76-.14-5.05-4.2-9.11-9.25-9.25H28.52c-5.25,0-9.5-4.26-9.51-9.51V28.52c0-5.25,4.26-9.5,9.51-9.51h457.04c5.25,0,9.5,4.26,9.51,9.51v291.92c0,5.25-4.26,9.5-9.51,9.51h-89.64c-5.25.08-9.44,4.4-9.36,9.65.08,5.13,4.22,9.28,9.36,9.36h89.64c15.74-.02,28.5-12.77,28.52-28.52V28.52c-.02-15.74-12.77-28.5-28.52-28.52Z"/><path class="cls-3" d="M351.04,263.17c-3.51-2.63-6.54-5.84-8.98-9.49-3.02-12.63,4.62-31.84-7-42.8-10.95-11.59-30.18-4.01-42.8-7-10.85-7.03-18.83-25.63-35.22-25.31-16.38-.3-24.38,18.26-35.21,25.31-4.52.97-9.18,1.15-13.76.51-26.3-3.34-38.91,9.08-35.53,35.52,2.73,9.02-1.23,18.72-9.49,23.26-21.51,16.67-21.61,34.71,0,51.47,3.51,2.63,6.54,5.83,8.97,9.48,3.02,12.63-4.62,31.84,7,42.8,10.96,11.6,30.17,3.99,42.8,7,3.65,2.43,6.85,5.47,9.48,8.98,16.67,21.5,34.73,21.63,51.47,0,4.54-8.26,14.24-12.21,23.25-9.49,26.3,3.3,38.89-9.06,35.52-35.53-2.73-9.02,1.23-18.71,9.48-23.24,21.49-16.68,21.64-34.72,0-51.46ZM338.51,300.32c-12.65,8.51-18.93,23.79-15.94,38.73.31,5.05.78,12.69-.96,14.43-1.74,1.73-9.38,1.26-14.43.96-14.94-3-30.23,3.29-38.73,15.94-3.63,4.16-8.61,9.85-11.42,9.85s-7.79-5.69-11.43-9.85c-6.61-10.25-18-16.39-30.19-16.29-6.34-.21-18.88,2.03-22.95-.6-1.74-1.74-1.27-9.38-.96-14.43,2.99-14.94-3.29-30.22-15.94-38.73-12.66-10.86-12.8-11.92,0-22.85,12.65-8.5,18.94-23.78,15.94-38.73-.31-5.05-.78-12.69.96-14.43,1.74-1.75,9.38-1.28,14.43-.96,14.94,3,30.22-3.29,38.72-15.94,10.86-12.67,11.92-12.8,22.85,0,8.5,12.65,23.78,18.94,38.72,15.94,5.05-.3,12.68-.77,14.42.96,1.74,1.74,1.27,9.38.96,14.43-3,14.95,3.3,30.22,15.95,38.73,12.66,10.87,12.79,11.92,0,22.85Z"/><path class="cls-3" d="M293.73,402.92c-5.25,0-9.5,4.25-9.51,9.5h0v36.85l-20.46-20.47c-3.77-3.56-9.67-3.56-13.44,0l-20.46,20.47v-36.84c-.1-5.25-4.44-9.42-9.69-9.32-5.11.1-9.22,4.22-9.32,9.32v59.79c.08,5.28,4.43,9.5,9.71,9.42,2.44-.04,4.77-1,6.52-2.7l29.97-29.97,29.97,29.97c3.79,3.68,9.85,3.59,13.53-.2,1.7-1.75,2.66-4.08,2.7-6.52v-59.79c0-5.25-4.25-9.5-9.5-9.51h0Z"/><path class="cls-4" d="M257.03,228.98c-33.08.03-59.88,26.83-59.92,59.91,2.82,79.31,117.04,79.28,119.85,0-.04-33.08-26.85-59.88-59.92-59.91ZM257.03,329.8c-22.58-.33-40.64-18.91-40.32-41.49.32-22.13,18.19-40,40.32-40.32,22.6,0,40.91,18.3,40.91,40.9s-18.32,40.91-40.91,40.91Z"/><path class="cls-2" d="M295.07,288.89c0,21-17.02,38.02-38.02,38.02-20.98-.31-37.77-17.57-37.47-38.56.3-20.57,16.9-37.17,37.47-37.47,21,0,38.02,17.01,38.02,38.01Z"/><path class="cls-3" d="M183.71,64.17h143.33c5.25-.11,9.42-4.45,9.31-9.7-.11-5.1-4.21-9.2-9.31-9.31h-143.33c-5.25.1-9.42,4.44-9.32,9.69.1,5.1,4.21,9.22,9.32,9.32Z"/><path class="cls-3" d="M183.71,114.09h256.66c5.25-.08,9.44-4.4,9.36-9.65-.08-5.13-4.22-9.28-9.36-9.36H183.71c-5.25.08-9.44,4.4-9.36,9.65.08,5.14,4.22,9.28,9.36,9.36Z"/><path class="cls-3" d="M183.71,164h256.66c5.25-.08,9.44-4.4,9.36-9.65-.08-5.13-4.22-9.28-9.36-9.36H183.71c-5.25.08-9.44,4.4-9.36,9.65.08,5.14,4.22,9.29,9.36,9.36Z"/><path class="cls-1" d="M125.44,174.33c-3.41,0-6.15-.83-8.16-2.46-1.72-1.4-3.17-3.13-4.32-5.15l-20.93-31.47c-2.26-3.53-4.57-6-6.91-7.37-2.29-1.34-5.47-2.03-9.46-2.03h-17.41c-6.35,0-10-3.58-10-9.83s3.64-9.67,10-9.67h26.68c7.18,0,12.74-1.23,16.51-3.67,2.64-1.71,4.5-4.04,5.63-7.09h-49.31c-5.95,0-9.51-3.37-9.51-9.02s3.55-8.86,9.51-8.86h47.75c-3.44-4.93-9.91-7.34-19.61-7.34h-28.14c-5.95,0-9.51-3.37-9.51-9.02s3.55-8.86,9.51-8.86h80.04c6.05,0,9.67,3.31,9.67,8.86s-3.62,9.02-9.67,9.02h-11.84c1.47,2.22,2.61,4.67,3.42,7.34h8.42c6.05,0,9.67,3.31,9.67,8.86s-3.62,9.02-9.67,9.02h-7.46c-1.19,7.18-4.22,13.28-9.04,18.14-3.64,3.68-8.17,6.48-13.52,8.37,3.26,2.35,6.3,5.63,9.09,9.82l17.24,25.87c3.06,4.86,2.33,8.71,1.19,11.09-1.19,2.49-3.87,5.45-9.86,5.45Z"/><path class="cls-3" d="M137.8,55.5c4.45,0,6.67,1.95,6.67,5.86s-2.22,6.02-6.67,6.02h-18.38c3.9,3.47,6.45,7.92,7.65,13.34h10.74c4.45,0,6.67,1.95,6.67,5.86s-2.22,6.02-6.67,6.02h-10.09c-.76,7.7-3.61,14.05-8.54,19.03-4.94,4.99-11.63,8.19-20.09,9.6,5.64,1.41,10.74,5.53,15.29,12.36l17.24,25.87c1.84,2.93,2.17,5.64.98,8.13-1.19,2.5-3.58,3.74-7.16,3.74-2.71,0-4.8-.6-6.26-1.79-1.46-1.19-2.68-2.66-3.66-4.39l-20.99-31.56c-2.5-3.9-5.12-6.67-7.89-8.3-2.77-1.63-6.43-2.44-10.98-2.44h-17.41c-4.66,0-7-2.28-7-6.83s2.33-6.67,7-6.67h26.68c7.81,0,13.85-1.38,18.14-4.15,4.28-2.77,6.91-6.97,7.89-12.61h-53.2c-4.34,0-6.51-2.01-6.51-6.02s2.17-5.86,6.51-5.86h52.54c-2.93-8.89-11.06-13.34-24.4-13.34h-28.14c-4.34,0-6.51-2.01-6.51-6.02s2.17-5.86,6.51-5.86h80.04M137.8,49.5H57.77c-7.6,0-12.51,4.65-12.51,11.86s4.91,12.02,12.51,12.02h28.14c4.39,0,7.73.51,10.29,1.34h-38.44c-7.6,0-12.51,4.65-12.51,11.86s4.91,12.02,12.51,12.02h43.99c-.57.58-1.22,1.1-1.94,1.57-3.28,2.12-8.29,3.19-14.88,3.19h-26.68c-8.02,0-13,4.85-13,12.67s4.98,12.83,13,12.83h17.41c3.45,0,6.12.54,7.94,1.61,1.93,1.13,3.91,3.27,5.88,6.36l.03.05.03.04,20.87,31.39c1.32,2.3,3,4.28,4.98,5.9,2.56,2.08,5.94,3.14,10.05,3.14,7.96,0,11.29-4.48,12.57-7.15,1.47-3.07,2.43-7.97-1.31-13.92l-.04-.07-.04-.07-17.24-25.87c-1.86-2.8-3.84-5.23-5.93-7.28,3.81-1.87,7.15-4.25,10-7.14,4.69-4.74,7.83-10.53,9.37-17.25h4.99c7.7,0,12.67-4.72,12.67-12.02s-4.97-11.86-12.67-11.86h-6.27c-.17-.45-.35-.9-.54-1.34h6.81c7.7,0,12.67-4.72,12.67-12.02s-4.97-11.86-12.67-11.86h0Z"/></g></svg>