<?xml version="1.0" encoding="UTF-8"?><svg id="Layer_2" xmlns="http://www.w3.org/2000/svg" viewBox="0 0 352 400"><defs><style>.cls-1{fill:#474747;}.cls-1,.cls-2,.cls-3,.cls-4{stroke-width:0px;}.cls-2{fill:#686868;}.cls-3{fill:#0965da;}.cls-4{fill:#fff;}</style></defs><g id="Layer_1-2"><path class="cls-1" d="M0,352h352v48H0v-48Z"/><path class="cls-3" d="M0,352v24h304c8.84,0,16-7.16,16-16v-8H0Z"/><path class="cls-3" d="M32,352v-112h-16l48-48,48,48h-16v112H32Z"/><path class="cls-3" d="M144,352v-192h-16l48-48,48,48h-16v192h-64Z"/><path class="cls-3" d="M256,352V96h-16l48-48,48,48h-16v256h-64Z"/><path class="cls-2" d="M240,0h-48v16h28.69l-96,96H32v16h96c2.12,0,4.16-.84,5.66-2.34L232,27.31v28.69h16V8c0-4.42-3.58-8-8-8Z"/><path class="cls-3" d="M256,96v256h32V48l-48,48h16Z"/><path class="cls-3" d="M144,160v192h32V112l-48,48h16Z"/><path class="cls-3" d="M32,240v112h32v-160l-48,48h16Z"/><path class="cls-4" d="M133.66,125.66L232,27.31v28.69h16V8c0-4.42-3.58-8-8-8h-48v16h28.69l-96,96H32v16h96c2.12,0,4.16-.84,5.66-2.34h0Z"/></g></svg>