<?xml version="1.0" encoding="UTF-8"?><svg id="Layer_2" xmlns="http://www.w3.org/2000/svg" viewBox="0 0 464.78 501.01"><defs><style>.cls-1{fill:#0965fa;}.cls-1,.cls-2,.cls-3{stroke-width:0px;}.cls-2{fill:#000;}.cls-3{fill:#0965da;}</style></defs><g id="Layer_1-2"><rect class="cls-3" x="9.49" y="329.85" width="71" height="163"/><rect class="cls-3" x="134.49" y="239.85" width="71" height="253"/><rect class="cls-3" x="384.49" y="161.85" width="71" height="331"/><rect class="cls-3" x="259.49" y="318.85" width="71" height="174"/><path class="cls-1" d="M29.16,249.26c-5.1,0-10.11-1.98-13.42-5.29-3.51-3.51-5.45-8.28-5.45-13.4s1.94-9.89,5.46-13.41l123.94-123.94,1.2-1.2h.59c2.77-1.83,6.37-3.53,11.07-3.53h6v1.01c2.84.97,5.09,2.47,6.76,3.71l.34.26,60.89,60.89c.26.26.55.31.75.31s.49-.05.75-.31l109.23-109.23c.3-.3.38-.51.39-.55,0-.02-.02-.12-.1-.28l-.29-.59-.06-.23c-.15-.05-.37-.09-.63-.09h-28.2c-9.84,0-17.85-7.39-18.63-17.18-.42-5.18,1.32-10.17,4.89-14.03,3.62-3.92,8.76-6.17,14.09-6.17h75.79c5.24,0,10.25,2.12,14.11,5.98l1.76,1.76v.8c1.98,3.5,2.69,6.87,2.12,10.06v76.95c0,9.84-7.39,17.85-17.18,18.63-.49.04-.98.06-1.47.06-10.33,0-18.73-8.54-18.73-19.05v-27.85c0-.34,0-.52-.92-.98-.16-.08-.26-.1-.28-.1-.04,0-.25.09-.56.39l-122.68,122.68c-3.52,3.52-8.28,5.46-13.41,5.46s-9.89-1.94-13.41-5.46l-60.58-60.58c-.26-.26-.55-.31-.75-.31s-.49.05-.75.31l-106.77,106.77-1.99,2-.26.21c-4.47,3.57-9.3,5.54-13.61,5.54Z"/><path class="cls-2" d="M384.51,12c3.52,0,7.05,1.41,9.86,4.22,0,0,.01.01.01.02,1.41,2.11,2.82,4.93,2.11,7.75v77.56c0,6.7-5.1,12.13-11.66,12.65-.33.03-.67.04-.99.04-7,0-12.73-5.91-12.73-13.05v-27.85c0-2.82-1.41-4.93-4.23-6.35-1-.5-2-.73-2.96-.73-1.76,0-3.42.78-4.79,2.14l-122.68,122.68c-2.47,2.47-5.82,3.7-9.16,3.7s-6.7-1.23-9.16-3.7l-60.58-60.58c-1.38-1.38-3.19-2.07-4.99-2.07s-3.61.69-4.99,2.07l-108.52,108.52s0,0,0,.01c-3.52,2.82-7.05,4.23-9.86,4.23-3.53,0-7.05-1.41-9.17-3.53-4.93-4.94-4.93-13.39,0-18.33l123.38-123.38s0,0,.01,0c2.82-2.11,5.64-3.52,9.16-3.52h0c3.52,0,6.34,1.41,9.16,3.52h0s60.58,60.58,60.58,60.58c1.38,1.38,3.18,2.07,4.99,2.07s3.61-.69,4.99-2.07l109.23-109.23c2.12-2.11,2.82-4.94,1.41-7.76-.7-2.82-3.52-4.23-6.35-4.23h-28.2c-6.7,0-12.13-5.1-12.65-11.66-.6-7.45,5.53-13.73,13-13.73h75.79M384.51,0h-75.79c-7.01,0-13.75,2.95-18.5,8.1-4.65,5.04-7.01,11.81-6.46,18.59,1.03,12.94,11.61,22.7,24.61,22.7h16.15l-97.23,97.23-57.08-57.08-.61-.61-.69-.52c-1.2-.9-2.65-1.9-4.36-2.82v-3.09h-12c-5.31,0-9.54,1.65-12.77,3.52h-1.37s0,0,0,0l-3.51,3.52L11.51,212.92c-4.65,4.65-7.22,10.92-7.22,17.65s2.56,13,7.22,17.65c4.4,4.41,11,7.04,17.65,7.04,5.74,0,11.74-2.37,17.35-6.85l.55-.44.5-.5.41-.42,104.57-104.56,57.09,57.09c4.65,4.65,10.92,7.22,17.65,7.22s13-2.56,17.65-7.22l114.19-114.19v15.8c0,13.81,11.1,25.05,24.73,25.05.65,0,1.3-.03,1.94-.08,12.94-1.03,22.71-11.61,22.71-24.61V25.09c.58-3.94-.13-7.97-2.11-12.02v-1.8l-3.53-3.53c-4.99-4.99-11.51-7.74-18.35-7.74h0Z"/><path class="cls-2" d="M455.85,501.01h-71.73c-4.93,0-8.92-3.99-8.92-8.92V168.73c0-8.77,7.11-15.89,15.89-15.89h57.8c8.77,0,15.89,7.11,15.89,15.89v57.85c0,5.74-5.35,10.19-10.92,8.79-3.67-.92-5.98-3.96-5.98-8.16v-50.03c0-4.11-3.33-7.44-7.44-7.44h-40.9c-4.11,0-7.44,3.33-7.44,7.44v306.45c0,.26.21.47.47.47h54.83c.26,0,.47-.21.47-.47v-221.15c0-5.74,5.35-10.19,10.92-8.79,3.67.92,5.98,3.96,5.98,8.16v230.23c0,4.93-3.99,8.92-8.92,8.92Z"/><path class="cls-2" d="M331.26,501.01h-72.2c-4.93,0-8.92-3.99-8.92-8.92v-174.83c0-4.93,3.99-8.92,8.92-8.92h57.99c12.52,0,22.67,10.15,22.67,22.67v161.55c0,5.07-3.38,8.45-8.45,8.45h0ZM267.51,484.11h54.83c.26,0,.47-.21.47-.47v-144.18c0-7.85-6.37-14.22-14.22-14.22h-27.34c-7.85,0-14.22,6.37-14.22,14.22v144.18c0,.26.21.47.47.47Z"/><path class="cls-2" d="M205.72,501.01h-71.73c-4.93,0-8.92-3.99-8.92-8.92v-243.91c0-11.58,9.39-20.97,20.97-20.97h47.64c11.58,0,20.97,9.39,20.97,20.97v34.18c0,5.74-5.35,10.19-10.92,8.79-3.67-.92-5.98-3.96-5.98-8.16v-26.36c0-6.91-5.6-12.51-12.51-12.51h-30.74c-6.91,0-12.51,5.6-12.51,12.51v227.01c0,.26.21.47.47.47h54.83c.26,0,.47-.21.47-.47v-165.37c0-5.74,5.35-10.19,10.92-8.79,3.67.92,5.98,3.96,5.98,8.16v174.45c0,4.93-3.99,8.92-8.92,8.92Z"/><path class="cls-2" d="M80.65,501.01H8.92c-4.93,0-8.92-3.99-8.92-8.92v-150.28c0-11.48,9.31-20.79,20.79-20.79h47.99c11.48,0,20.79,9.31,20.79,20.79v150.28c0,4.93-3.99,8.92-8.92,8.92ZM17.37,484.11h54.83c.26,0,.47-.21.47-.47v-133.38c0-6.82-5.53-12.34-12.34-12.34h-31.09c-6.82,0-12.34,5.53-12.34,12.34v133.38c0,.26.21.47.47.47Z"/></g></svg>