<?xml version="1.0" encoding="UTF-8"?><svg id="Layer_2" xmlns="http://www.w3.org/2000/svg" viewBox="0 0 509.78 509.67"><defs><style>.cls-1{fill:#0965fa;}.cls-1,.cls-2,.cls-3{stroke-width:0px;}.cls-2{fill:#22b573;}.cls-3{fill:#fff;}</style></defs><g id="Layer_1-2"><path class="cls-1" d="M492.61,445.43H190.61c3.94-18.92,15.06-49.08,19-68,3.14-15.08-46.14-18.92-43-34-19.3-2.17-36.7-30.83-56-33-20.7-2.32-38,8-64,19.52V90.43h446v355Z"/><rect class="cls-1" x="40.61" y="90.43" width="459" height="104" rx="14.59" ry="14.59"/><path class="cls-1" d="M195.04,8.43h151.14c13.48,0,24.43,10.95,24.43,24.43v60.57h-200v-60.57c0-13.48,10.95-24.43,24.43-24.43Z"/><path class="cls-3" d="M209.05,236.35h123.9v22.86c0,6.64-5.39,12.03-12.03,12.03h-99.84c-6.64,0-12.03-5.39-12.03-12.03v-22.86Z"/><rect class="cls-3" x="296.87" y="207.47" width="33.68" height="28.87"/><rect class="cls-3" x="212.66" y="207.47" width="33.68" height="28.87"/><path class="cls-3" d="M491.43,83h-53.04c-2.9,0-5.55,1.94-6.12,4.77-.77,3.87,2.16,7.26,5.89,7.26h53.27c3.49,0,6.32,2.83,6.32,6.32v72.14c0,17.12-13.88,31-31,31H75.27c-17.13,0-31.01-13.88-31.01-31v-72.56c0-3.26,2.64-5.9,5.91-5.9h356.18c2.64,0,5.11-1.73,5.67-4.31.76-3.47-2.17-6.52-5.89-6.52h-28.66V30.69c0-16.95-13.74-30.69-30.69-30.69h-151.52c-16.95,0-30.69,13.74-30.69,30.69v53.51H50.58c-10.14,0-18.35,8.22-18.35,18.36v70.93c0,23.77,19.27,43.03,43.03,43.03h391.33c8.34,0,16.14-2.4,22.75-6.53v223.94c0,3.49-2.83,6.32-6.33,6.32H209.96c-.75,4.08-1.71,8.1-2.85,12.03h275.9c10.13,0,18.35-8.22,18.35-18.35v-235.25c5.29-7.1,8.42-15.84,8.42-25.29v-72.05c0-10.13-8.22-18.35-18.35-18.35ZM337.76,83h-134.72v-44.51h134.72v44.51ZM195.26,12.03h151.51c10.31,0,18.67,8.36,18.67,18.67v53.51h-15.64v-51.72c0-3.33-2.69-6.02-6.02-6.02h-146.75c-3.32,0-6.01,2.69-6.01,6.02v51.72h-14.43V30.81h0c0-10.36,8.38-18.79,18.68-18.79ZM40.65,228.83v70.4c3.92-1.51,7.93-2.83,12.03-3.94v-68.48c0-.61-.26-1.19-.7-1.61-5.18-4.98-11.33-1.39-11.33,3.63Z"/><path class="cls-3" d="M192.67,410.01c-.39,23.85-9.87,46.2-26.77,63.11-17.28,17.27-40.24,26.79-64.67,26.79s-47.4-9.51-64.67-26.79c-17.27-17.28-26.79-40.24-26.79-64.67s9.51-47.4,26.79-64.68c16.17-16.16,37.32-25.54,59.99-26.67v-9.77c-25.28,1.14-48.88,11.53-66.89,29.54C10.53,356,0,381.41,0,408.45s10.53,52.46,29.64,71.57c19.12,19.12,44.54,29.64,71.57,29.64s52.46-10.53,71.57-29.64c18.75-18.75,29.23-43.56,29.63-70.01h-9.76Z"/><path class="cls-3" d="M153.38,410.47c-1.08,27.84-24.07,50.14-52.16,50.14s-52.2-23.42-52.2-52.2c0-26.69,20.15-48.78,46.04-51.83v-12.92c-32.98,3.12-58.87,30.97-58.87,64.75,0,35.86,29.18,65.04,65.04,65.04s63.92-28.07,65.01-62.98h-12.85Z"/><path class="cls-3" d="M227.62,404.44c-2.55-31.72-16.23-61.2-39.18-83.95-23.95-23.72-55.29-37.47-88.87-39.11-2.25-.1-4.51-.16-6.78-.16-1.43,0-2.86.02-4.29.07-1.1.03-1.97.93-1.97,2.02v77.58c0,1.18,1.01,2.1,2.19,2.01,1.34-.1,2.7-.15,4.07-.15,2.29,0,4.56.14,6.78.43,22.4,2.85,40.49,19.62,45.09,41.26.75,3.5,1.14,7.13,1.14,10.85v.02c0,1.13.9,2.05,2.03,2.05h78.21c1.11,0,2.02-.9,2.03-2.02v-.05c0-3.64-.15-7.26-.44-10.85ZM212.3,404.44h-52.69c-.97,0-1.8-.68-1.98-1.63-5.36-27.43-28.06-48.81-56.31-52.44-1-.13-1.76-.99-1.76-2v-51.88c0-1.18,1-2.1,2.18-2.02,29.27,2.09,56.5,14.39,77.47,35.16,19.94,19.76,32.14,45.15,35.1,72.56.13,1.2-.81,2.25-2.02,2.25Z"/><path class="cls-2" d="M214.32,402.18c.13,1.2-.81,2.25-2.02,2.25h-52.69c-.97,0-1.8-.68-1.98-1.63-5.36-27.43-28.06-48.81-56.31-52.44-1-.13-1.76-.99-1.76-2v-51.88c0-1.18,1-2.1,2.18-2.02,29.27,2.09,56.5,14.39,77.47,35.16,19.94,19.76,32.14,45.15,35.1,72.56Z"/></g></svg>