<?xml version="1.0" encoding="UTF-8"?><svg id="Layer_2" xmlns="http://www.w3.org/2000/svg" viewBox="0 0 392 461.11"><defs><style>.cls-1{fill:#e6e6e6;stroke-width:0px;}</style></defs><g id="Layer_1-2"><path class="cls-1" d="M261.82,409.91c-7.58,29.44-34.3,51.2-66.12,51.2s-58.54-21.76-66.12-51.2h132.23Z"/><path class="cls-1" d="M380.7,346.9c-15.02-6.6-39.7-28.27-39.7-99.52v-76.8c0-66.65-47.59-122.06-110.5-134.05l-8.5-1.62c0-4.67,0-8.82,0-8.82,0-10.89-8.52-22.46-19.06-25.19-17.35-4.49-32.94,8.49-32.94,25.1v8.91l-8.5,1.62c-62.91,11.99-110.5,67.4-110.5,134.05v76.8c0,71.24-24.68,92.92-39.7,99.52-7.53,3.31-12.02,11.23-11.2,19.57.98,9.99,9.71,17.45,19.75,17.45h352.3c10.04,0,18.78-7.45,19.75-17.45.82-8.34-3.67-16.27-11.2-19.57h0Z"/></g></svg>