<?xml version="1.0" encoding="UTF-8"?><svg id="Layer_2" xmlns="http://www.w3.org/2000/svg" viewBox="0 0 438 512"><defs><style>.cls-1{fill:#fff;}.cls-1,.cls-2{stroke-width:0px;}.cls-2{fill:#49c160;}</style></defs><g id="Layer_1-2"><path class="cls-1" d="M438,429.08H71.47c-6.99,0-6.94-7.57-2.99-10.99l81.52-70.01h260.79c3.25,0,5.94-2.93,6-6.17l3.27-168.54c.06-3-2.14-5.67-5.11-6.12l-57.65-8.67c-22.41,31.97-59.34,51.41-98.76,51.41-27.51,0-54.41-9.52-75.76-26.79-18.19-14.72-31.75-34.55-38.91-56.63l-38.43-5.76.17-.04-25.31-98.18c-1.77-6.88-7.97-11.51-15.07-11.51H0v30h53.17l68.87,288.3-73.78,64.02c-26.93,21.32-11.29,66.68,23.01,66.68h63.57s-5.47,11.75-5.47,18.5c0,18.54,15.14,33.43,33.83,33.43s33.83-14.82,33.83-33.35c0-6.75-5.47-17.57-5.47-17.57h129.91s-5.47,10.75-5.47,17.5c0,18.54,15.14,33.43,33.83,33.43s33.83-14.82,33.83-33.35c0-6.75-2.02-13.71-5.47-18.57h59.84v-31h0Z"/><path class="cls-2" d="M258.89,0c-49.27,0-89.36,40.04-89.36,89.26s40.09,89.26,89.36,89.26,89.36-40.04,89.36-89.26S308.16,0,258.89,0ZM253.36,131.85c-6.23,6.64-17.36,6.35-23.23-.64l-26.91-32.01,23.8-20.07,15.65,18.62,46.92-49.98,22.66,21.35-58.89,62.73Z"/></g></svg>