<?xml version="1.0" encoding="UTF-8"?><svg id="Layer_2" xmlns="http://www.w3.org/2000/svg" viewBox="0 0 412.47 460.8"><defs><style>.cls-1{fill:#0965fa;stroke-width:0px;}</style></defs><g id="Layer_1-2"><path class="cls-1" d="M206.27,239.28c65.83,0,119.64-53.81,119.64-119.64S272.1,0,206.27,0s-119.64,53.81-119.64,119.64,53.81,119.64,119.64,119.64Z"/><path class="cls-1" d="M411.59,334.89c-3.14-7.84-7.31-15.15-12.02-21.94-24.03-35.53-61.13-59.04-102.92-64.78-5.22-.52-10.97.52-15.15,3.66-21.94,16.2-48.07,24.56-75.23,24.56s-53.29-8.36-75.23-24.55c-4.18-3.13-9.93-4.7-15.15-3.66-41.8,5.75-79.41,29.26-102.92,64.78-4.7,6.79-8.88,14.63-12.02,21.94-1.57,3.14-1.05,6.79.52,9.93,4.18,7.31,9.4,14.63,14.11,20.9,7.31,9.93,15.15,18.81,24.03,27.17,7.31,7.31,15.67,14.11,24.03,20.9,41.27,30.83,90.91,47.02,142.11,47.02s100.83-16.2,142.11-47.02c8.36-6.27,16.72-13.58,24.03-20.9,8.36-8.36,16.72-17.24,24.03-27.17,5.22-6.79,9.93-13.58,14.11-20.9,2.61-3.14,3.13-6.79,1.57-9.93Z"/></g></svg>