<?xml version="1.0" encoding="UTF-8"?><svg id="Layer_2" xmlns="http://www.w3.org/2000/svg" xmlns:xlink="http://www.w3.org/1999/xlink" viewBox="0 0 512 512"><defs><style>.cls-1{fill:none;}.cls-1,.cls-2{stroke-width:0px;}.cls-3{clip-path:url(#clippath);}.cls-2{fill:#eda6aa;}</style><clipPath id="clippath"><rect class="cls-1" width="512" height="512"/></clipPath></defs><g id="Layer_1-2"><g class="cls-3"><path class="cls-2" d="M426.33,128h-46.41c2.34-6.61,3.84-13.87,3.84-21.33,0-35.41-28.56-64-63.93-64-22.38,0-41.77,11.52-53.28,28.8l-10.66,14.29-10.66-14.51c-11.51-17.07-30.9-28.59-53.28-28.59-35.38,0-63.93,28.59-63.93,64,0,7.47,1.49,14.72,3.84,21.33h-46.46c-23.65,0-42.41,18.99-42.41,42.67l-.21,234.67c0,23.68,18.97,42.67,42.62,42.67h340.93c23.56,0,42.67-19.1,42.67-42.67v-234.67c0-23.56-19.1-42.67-42.67-42.67ZM319.87,85.65c11.73,0,21.33,9.6,21.33,21.33s-9.6,21.33-21.33,21.33-21.33-9.6-21.33-21.33,9.6-21.33,21.33-21.33ZM191.87,85.65c11.73,0,21.33,9.6,21.33,21.33s-9.6,21.33-21.33,21.33-21.33-9.6-21.33-21.33,9.6-21.33,21.33-21.33ZM404.67,406H106.33c-11.73,0-21.33-9.6-21.33-21.33v-21.67h341v21.67c0,11.73-9.6,21.33-21.33,21.33ZM426,299H85v-106.67c0-11.73,9.6-21.33,21.33-21.33h86.93l-31.54,43.09c-7.03,9.6-4.9,23.04,4.69,29.87,9.38,6.83,22.8,4.69,29.62-4.69l59.46-81.07,59.46,81.07c6.82,9.39,20.25,11.52,29.62,4.69,9.59-6.83,11.72-20.27,4.69-29.87l-31.54-43.09h86.93c11.73,0,21.33,9.6,21.33,21.33v106.67Z"/></g></g></svg>