<?xml version="1.0" encoding="UTF-8"?><svg id="Layer_2" xmlns="http://www.w3.org/2000/svg" viewBox="0 0 396.5 396.5"><defs><style>.cls-1{fill:#a7bdea;stroke-width:0px;}</style></defs><g id="Layer_1-2"><path class="cls-1" d="M256.91,78.75h-116.44c-11.68,0-21.43,8.56-22.68,19.91-.7,6.37,1.33,12.74,5.58,17.48,4.25,4.75,10.34,7.47,16.72,7.47h117.21c6.37,0,12.46-2.72,16.71-7.47,4.25-4.74,6.28-11.12,5.58-17.49-1.25-11.35-11-19.91-22.68-19.91Z"/><path class="cls-1" d="M395.02,121.69c-1.32-5.89-3.48-11.54-6.43-16.77-3.35-5.96-7.84-10.93-13.06-16.73l-55.04-61.16c-5.99-6.66-11.16-12.41-17.68-16.75-5.75-3.82-12.06-6.63-18.75-8.35C276.49,0,268.77,0,259.84,0H84.35C73.9,0,64.89,0,57.46.61c-9.81.8-17.18,2.68-23.88,6.1-11.64,5.93-20.94,15.23-26.87,26.88-3.42,6.7-5.3,14.07-6.1,23.88-.61,7.43-.61,16.45-.61,26.89v227.79c0,10.44,0,19.46.61,26.89.8,9.81,2.68,17.17,6.1,23.88,5.94,11.65,15.23,20.94,26.87,26.88,6.7,3.42,14.07,5.3,23.88,6.1,7.44.61,16.46.61,26.91.61h227.78c10.45,0,19.47,0,26.9-.61,9.81-.8,17.17-2.68,23.87-6.1,11.65-5.94,20.95-15.23,26.89-26.88,3.42-6.7,5.29-14.07,6.1-23.88.6-7.42.6-16.42.6-26.84v-169.35c0-8.1,0-14.49-1.48-21.16ZM318.06,272.54c-.8-9.79-2.68-17.15-6.09-23.84-5.93-11.62-15.21-20.9-26.86-26.83-6.69-3.41-14.04-5.28-23.84-6.08-7.42-.6-16.43-.6-26.85-.6h-71.42c-10.43,0-19.44,0-26.86.6-9.8.8-17.16,2.68-23.85,6.08-11.63,5.92-20.91,15.2-26.84,26.83-3.41,6.69-5.29,14.04-6.09,23.83-.61,7.42-.61,16.42-.61,26.84v52.25c-8.02-.02-13.32-.1-17.64-.45-5.9-.48-7.14-1.3-7.81-1.74-2.49-1.65-4.59-3.75-6.24-6.24-.44-.67-1.26-1.91-1.74-7.81-.44-5.35-.46-12.19-.46-23.83V84.95c0-11.64.02-18.49.46-23.83.48-5.9,1.3-7.14,1.74-7.8,1.65-2.5,3.75-4.6,6.24-6.25.67-.44,1.9-1.26,7.8-1.74,5.34-.44,12.19-.46,23.84-.46h173.37c10.07,0,12.93.1,14.57.52,1.81.47,3.52,1.23,5.07,2.26,1.41.94,3.41,3,10.14,10.49l53.24,59.15c5.82,6.47,7.42,8.36,8.14,9.65.79,1.4,1.37,2.93,1.73,4.54.33,1.46.41,3.94.41,12.62v167.45c0,10.6,0,18.25-.46,23.84-.29,3.51-.75,5.98-1.35,7.16-1.58,3.1-4.17,5.68-7.28,7.27-1.18.6-3.65,1.07-7.15,1.35-4.15.34-9.21.43-16.72.45v-52.3c0-10.4,0-19.38-.6-26.78ZM123.62,300c0-11.61.02-18.43.46-23.76.48-5.87,1.3-7.11,1.73-7.77,1.64-2.49,3.73-4.58,6.22-6.22.66-.44,1.9-1.25,7.79-1.73,5.34-.44,12.17-.46,23.79-.46h70.2c11.62,0,18.45.02,23.79.46,3.49.28,5.97.75,7.14,1.35,3.15,1.6,5.66,4.11,7.26,7.24.6,1.17,1.06,3.63,1.35,7.13.46,5.57.46,13.2.46,23.76v51.63H123.62v-51.63Z"/></g></svg>