<?xml version="1.0" encoding="UTF-8"?><svg id="Layer_2" xmlns="http://www.w3.org/2000/svg" viewBox="0 0 301.2 307.22"><defs><style>.cls-1{fill:#000;stroke-width:0px;}</style></defs><g id="Layer_1-2"><g id="surface1"><path class="cls-1" d="M209.84,182.31c36.88-52.08,24.54-124.19-27.53-161.06C130.23-15.62,58.12-3.29,21.25,48.79-15.62,100.87-3.29,172.97,48.79,209.84c37.17,26.32,86.31,28.34,125.52,5.19l85.18,84.67c9.2,9.68,24.5,10.07,34.18.87,9.68-9.19,10.07-24.49.88-34.17-.29-.31-.57-.59-.88-.88l-83.84-83.21ZM115.47,190.88c-41.15,0-74.52-33.33-74.54-74.48,0-41.15,33.33-74.52,74.49-74.53,41.1-.02,74.44,33.27,74.52,74.37.07,41.16-33.25,74.58-74.42,74.65h-.05Z"/></g></g></svg>