<?xml version="1.0" encoding="UTF-8"?><svg id="Layer_2" xmlns="http://www.w3.org/2000/svg" viewBox="0 0 566.84 446.63"><defs><style>.cls-1{fill:#0965fa;}.cls-1,.cls-2{stroke-width:0px;}.cls-2{fill:#000;}</style></defs><g id="Layer_1-2"><polygon class="cls-1" points="190.91 439.91 5.91 439.91 30.91 347.91 164.91 347.91 190.91 437.91 190.91 439.91"/><polygon class="cls-1" points="283.91 344.91 98.91 344.91 123.91 252.91 257.91 252.91 283.91 342.91 283.91 344.91"/><polygon class="cls-1" points="376.91 438.91 191.91 438.91 216.91 346.91 350.91 346.91 376.91 436.91 376.91 438.91"/><polygon class="cls-1" points="560.91 438.91 375.91 438.91 400.91 346.91 534.91 346.91 560.91 436.91 560.91 438.91"/><polygon class="cls-1" points="467.91 344.91 282.91 344.91 307.91 252.91 441.91 252.91 467.91 342.91 467.91 344.91"/><polygon class="cls-1" points="376.91 250.91 191.91 250.91 216.91 158.91 350.91 158.91 376.91 248.91 376.91 250.91"/><path class="cls-1" d="M469.18,170.19c38.14-38.14,37.59-100.33-1.67-137.78-37.12-35.4-96.31-35.22-133.22.4-33.81,32.62-38.49,83.71-14.09,121.48l-5.03,26.52c-.82,4.3,2.95,8.07,7.25,7.25l26.52-5.03c37.29,24.1,87.58,19.83,120.25-12.84Z"/><path class="cls-2" d="M566.58,435.85l-20.26-81.77c-2.06-8.33-9.5-14.14-18.07-14.14h-54.56l-19.86-80.15c-2.06-8.33-9.5-14.14-18.08-14.14h-54.4l-11.39-45.97c10.08,3.21,20.65,4.87,31.3,4.87,3.39,0,6.8-.17,10.19-.51,23.38-2.35,45.43-12.81,62.08-29.45,19.66-19.66,30.3-45.79,29.97-73.59-.33-27.79-11.6-53.68-31.74-72.89C452.74,9.98,427.68,0,401.17,0h-.43c-26.63.08-51.75,10.22-70.74,28.54-34.52,33.31-41.2,86.35-16.31,127.02l-4.52,23.81c-.53,2.82-.23,5.78,1.12,8.32,2.65,4.99,8.08,7.45,13.31,6.45l24.1-4.57c2.59,1.58,5.25,3.03,7.96,4.37l12.81,51.71h-170.32l19.12-77.17c.69-2.77,3.17-4.71,6.02-4.71h62.55c2.98,0,5.72-2,6.31-4.92.8-3.99-2.23-7.49-6.07-7.49h-62.74c-8.58,0-16.01,5.82-18.08,14.14l-19.86,80.15h-54.45c-8.58,0-16.01,5.82-18.08,14.14l-19.86,80.15h-54.47c-8.57,0-16,5.81-18.06,14.13l-4.32,17.43c-.72,2.89.55,6.03,3.24,7.31,3.67,1.75,7.81-.35,8.74-4.09l4.38-17.66c.69-2.77,3.17-4.71,6.02-4.71h120.06c2.86,0,5.34,1.94,6.03,4.71l19.12,77.17H13.43l6.69-27.01c.72-2.89-.56-6.03-3.25-7.31-3.68-1.74-7.81.36-8.74,4.09l-7.84,31.64c-.5,2.01-.39,4.17.52,6.03,1.52,3.11,4.54,4.96,7.85,4.96h179.7c.86,0,1.69-.14,2.48-.37.8.24,1.63.37,2.48.37h179.92c.86,0,1.69-.14,2.48-.37.8.24,1.63.37,2.48.37h179.71c2.07,0,4.14-.63,5.73-1.97,2.65-2.23,3.71-5.6,2.91-8.81h0ZM348.94,176.83c-.39,0-.77.04-1.16.11l-26.52,5.03,5.03-26.52c.3-1.57-.02-3.18-.88-4.52-23.27-36.02-17.73-83.81,13.19-113.64,34.27-33.07,90.18-33.24,124.64-.37,17.73,16.91,27.65,39.69,27.94,64.14.29,24.46-9.08,47.46-26.37,64.76-29.81,29.81-77.12,34.87-112.49,12.01-1.01-.65-2.18-.99-3.37-.99h0ZM373.26,258.05h62.56c2.86,0,5.34,1.94,6.03,4.71l19.12,77.17h-170.44l19.12-77.17c.69-2.77,3.17-4.71,6.02-4.71h57.59ZM375.74,411.79l-14.3-57.72c-.15-.59-.33-1.16-.52-1.73h29.66c-.2.56-.38,1.14-.52,1.73l-14.3,57.72ZM283.35,317.5l-14.3-57.72c-.15-.59-.33-1.16-.52-1.73h29.65c-.2.56-.38,1.14-.52,1.73l-14.3,57.72ZM105.74,339.93l19.12-77.17c.69-2.77,3.17-4.71,6.02-4.71h120.15c2.86,0,5.34,1.94,6.03,4.71l19.12,77.17H105.74ZM176.66,354.07c-.15-.59-.33-1.16-.52-1.73h29.65c-.2.56-.38,1.14-.52,1.73l-14.3,57.72-14.3-57.72ZM198.13,434.22l19.12-77.17c.69-2.78,3.17-4.72,6.03-4.72h120.14c2.86,0,5.34,1.94,6.03,4.71l19.12,77.17h-170.44ZM382.91,434.22l19.12-77.17c.69-2.77,3.17-4.71,6.02-4.71h120.15c2.86,0,5.34,1.94,6.03,4.71l19.12,77.17h-170.44Z"/><path class="cls-2" d="M447.58,106.32l-41.12-57.87c-2.69-3.79-8.29-3.79-10.98,0l-41.13,57.88c-3.49,4.91.66,11.6,6.61,10.66l15.82-2.51v37.52c0,3.76,3.04,6.8,6.8,6.8h34.78c3.76,0,6.8-3.04,6.8-6.8v-37.52l15.88,2.52c5.92.94,10.03-5.77,6.54-10.68h0Z"/></g></svg>