<?xml version="1.0" encoding="UTF-8"?><svg id="Layer_2" xmlns="http://www.w3.org/2000/svg" viewBox="0 0 406.5 351.67"><defs><style>.cls-1{fill:#e6e6e6;stroke-width:0px;}</style></defs><g id="Layer_1-2"><path class="cls-1" d="M151,341H22c-11.45,0-21.06-8.96-21.48-20.4-.5-13.51,8.22-22.6,21.48-22.6h129c11.45,0,21.06,8.96,21.48,20.4.5,13.51-8.22,22.6-21.48,22.6Z"/><path class="cls-1" d="M215.25,192H21.75c-11.45,0-21.06-8.96-21.48-20.4-.5-13.51,8.22-22.6,21.48-22.6h193.5c11.45,0,21.06,8.96,21.48,20.4.5,13.51-8.22,22.6-21.48,22.6Z"/><path class="cls-1" d="M299.75,302.85V89.65c0-14.19,8.96-26.1,20.4-26.63,13.51-.62,22.6,10.19,22.6,26.62v213.2c0,16.44-9.09,27.24-22.6,26.62-11.44-.52-20.4-12.44-20.4-26.63Z"/><path class="cls-1" d="M321.17,351.67c-6.4,0-10.67-2.13-14.93-6.4l-64-64c-8.53-8.53-8.53-21.33,0-29.87s21.33-8.53,29.87,0l49.07,49.07,49.07-49.07c8.53-8.53,21.33-8.53,29.87,0,8.53,8.53,8.53,21.33,0,29.87l-64,64c-4.27,4.27-8.53,6.4-14.93,6.4h0Z"/><path class="cls-1" d="M279.5,43H21.5c-11.45,0-21.06-8.96-21.48-20.4C-.48,9.09,8.24,0,21.5,0h258c11.45,0,21.06,8.96,21.48,20.4.5,13.51-8.22,22.6-21.48,22.6Z"/></g></svg>