<?xml version="1.0" encoding="UTF-8"?><svg id="Layer_2" xmlns="http://www.w3.org/2000/svg" viewBox="0 0 427.37 425.66"><defs><style>.cls-1{fill:#fff;stroke-width:0px;}</style></defs><g id="Layer_1-2"><g id="g16805"><path id="path16783" class="cls-1" d="M212.65,0C95.38.56-.19,96.41,0,213.68c.18,109.97,83.9,200.63,191.23,211.82,18.12,1.89,33.14-13.27,33.14-30.83v-85.33c0-5.89,4.78-10.67,10.67-10.67h138.91c20.77,0,41.6-13.34,46.95-34.54,4.18-16.55,6.35-33.57,6.47-50.71,0-.01,0-.03,0-.04,0-.01,0-.03,0-.04C427.37,95.29,331.01-.56,212.65,0ZM149.7,85.12c17.55,0,32,14.45,32,32s-14.45,32-32,32-32-14.45-32-32,14.45-32,32-32ZM277.7,85.12c17.55,0,32,14.45,32,32s-14.45,32-32,32-32-14.45-32-32,14.45-32,32-32ZM96.37,170.46c17.55,0,32,14.45,32,32s-14.45,32-32,32-32-14.45-32-32,14.45-32,32-32ZM331.04,170.46c17.55,0,32,14.45,32,32s-14.45,32-32,32-32-14.45-32-32,14.45-32,32-32Z"/></g></g></svg>