<svg width="1235" height="1205" viewBox="0 0 1235 1205" fill="none" xmlns="http://www.w3.org/2000/svg">
<path fill-rule="evenodd" clip-rule="evenodd" d="M0 250.714L434.25 0V166H514C515.104 166 516 166.895 516 168V189.214H960.167C1111.74 189.214 1234.5 294.377 1234.5 424.214C1234.5 554.052 1111.74 659.214 960.167 659.214H274.333C198.892 659.214 137.167 712.089 137.167 776.714C137.167 841.339 198.892 894.214 274.333 894.214L717 894.214V873H800.75V703L1235 953.714L800.75 1204.43V1036H717V1011.71L274.333 1011.71C122.764 1011.71 0 906.552 0 776.714C0 646.877 122.764 541.714 274.333 541.714L960.167 541.714C1035.61 541.714 1097.33 488.839 1097.33 424.214C1097.33 359.589 1035.61 306.714 960.167 306.714H516V327C516 328.105 515.104 329 514 329H434.25V501.429L0 250.714Z" fill="white"/>
</svg>
